{"title":"Charlie.St.Cloud.2010.720p.BRRip.H264.Feel-Free","uid":5915323,"size":1348478593,"categoryP":"video","categoryS":"hd___movies","magnet":"?xt=urn:btih:e674cfa00f83830f1a88198e679fa2f4c3aba807&amp;dn=Charlie.St.Cloud.2010.720p.BRRip.H264.Feel-Free&amp;tr=udp%3A%2F%2Ftracker.openbittorrent.com%3A80&amp;tr=udp%3A%2F%2Fopen.demonii.com%3A1337&amp;tr=udp%3A%2F%2Ftracker.coppersurfer.tk%3A6969&amp;tr=udp%3A%2F%2Fexodus.desync.com%3A6969","seeders":0,"leechers":0,"uploader":"deffjam555","files":8,"time":1288200274,"description":"cover &lt;a href=&quot;\nhttp://shareimage.ro/images/6u5f02cw699dobdcm11.jpg&quot; rel=&quot;nofollow&quot; target=&quot;_NEW&quot;&gt;\nhttp://shareimage.ro/images/6u5f02cw699dobdcm11.jpg&lt;/a&gt;\n &lt;a href=&quot;\nhttp://www.imdb.com/title/tt1438254/&quot; rel=&quot;nofollow&quot; target=&quot;_NEW&quot;&gt;\nhttp://www.imdb.com/title/tt1438254/&lt;/a&gt;\n\nGenre:Fantasy | Romance | Drama\nLanguage:English\nIMDb:http://www.imdb.com/title/tt1438254/\nSource:720p BluRay x264-METiS\n\nGeneral\nComplete name :Charlie.St.Cloud.2010.720p.BRRip.H264.Feel-Free\nFormat : MPEG-4\nFormat profile : Base Media\nCodec ID : isom\nFile size : 1.26 GiB\nDuration : 1h 39mn\nOverall bit rate : 1 808 Kbps\nVideo #1\nCodec ID : avc1\nCodec ID/Info : Advanced Video Coding\nDuration : 1h 39mn\nBit rate mode : Variable\nBit rate : 1 484 Kbps\nWidth : 1 280 pixels\nHeight : 536 pixels\nDisplay aspect ratio : 2.35:1\nFrame rate mode : Constant\nFrame rate : 23.976 fps\nResolution : 24 bits\nColorimetry : 4:2:0\nScan type : Progressive\nBits/(Pixel*Frame) : 0.090\nStream size : 1.03 GiB (82%)\nAudio #2\nID : 2\nFormat : AAC\nFormat/Info : Advanced Audio Codec\nFormat version : Version 4\nFormat profile : LC\nFormat settings, SBR : No\nCodec ID : 40\nDuration : 1h 39mn\nBit rate mode : Variable\nBit rate : 320 Kbps\nChannel(s) : 6 channels\nChannel positions : Front: L C R, Rear: L R, LFE\nSampling rate : 48.0 KHz\nResolution : 16 bits\nStream size : 227 MiB (18%)\n\nPlot:\nCharlie St. Cloud is a young man overcome by grief at the death of his younger brother. So much so that he takes a job as caretaker of the cemetery in which his brother is buried. Charlie has a special lasting bond with his brother though, as he can see him. Charlie meets up with his brother (Sam) each night to play catch and talk. Then, a girl comes into Charlie's life and he must choose between keeping a promise he made to Sam, or going after the girl he loves\n\n\nscreens &lt;a href=&quot;\nhttp://img217.imageshack.us/img217/3608/charliestcloud2010720pb.jpg&quot; rel=&quot;nofollow&quot; target=&quot;_NEW&quot;&gt;\nhttp://img217.imageshack.us/img217/3608/charliestcloud2010720pb.jpg&lt;/a&gt; &lt;a href=&quot;\nhttp://img688.imageshack.us/img688/3608/charliestcloud2010720pb.jpg&quot; rel=&quot;nofollow&quot; target=&quot;_NEW&quot;&gt;\nhttp://img688.imageshack.us/img688/3608/charliestcloud2010720pb.jpg&lt;/a&gt; &lt;a href=&quot;\nhttp://img179.imageshack.us/img179/3608/charliestcloud2010720pb.jpg&quot; rel=&quot;nofollow&quot; target=&quot;_NEW&quot;&gt;\nhttp://img179.imageshack.us/img179/3608/charliestcloud2010720pb.jpg&lt;/a&gt; &lt;a href=&quot;\nhttp://img42.imageshack.us/img42/3608/charliestcloud2010720pb.jpg&quot; rel=&quot;nofollow&quot; target=&quot;_NEW&quot;&gt;\nhttp://img42.imageshack.us/img42/3608/charliestcloud2010720pb.jpg&lt;/a&gt; &lt;a href=&quot;\nhttp://img576.imageshack.us/img576/3608/charliestcloud2010720pb.jpg&quot; rel=&quot;nofollow&quot; target=&quot;_NEW&quot;&gt;\nhttp://img576.imageshack.us/img576/3608/charliestcloud2010720pb.jpg&lt;/a&gt;","torrent":{"xt":"urn:btih:e674cfa00f83830f1a88198e679fa2f4c3aba807","amp;dn":"Charlie.St.Cloud.2010.720p.BRRip.H264.Feel-Free","amp;tr":["udp%3A%2F%2Ftracker.openbittorrent.com%3A80","udp%3A%2F%2Fopen.demonii.com%3A1337","udp%3A%2F%2Ftracker.coppersurfer.tk%3A6969","udp%3A%2F%2Fexodus.desync.com%3A6969"],"infoHash":"e674cfa00f83830f1a88198e679fa2f4c3aba807","infoHashBuffer":{"type":"Buffer","data":[230,116,207,160,15,131,131,15,26,136,25,142,103,159,162,244,195,171,168,7]},"announce":[],"urlList":[]}}